HIERARCHY
ROOT Hips
{
	OFFSET 0.00000 0.00000 0.00000
	CHANNELS 6 Xposition Yposition Zposition Zrotation Yrotation Xrotation 
	JOINT LHipJoint
	{
		OFFSET 0 0 0
		CHANNELS 3 Zrotation Yrotation Xrotation
		JOINT LeftUpLeg
		{
			OFFSET 1.56857 -1.73443 1.15205
			CHANNELS 3 Zrotation Yrotation Xrotation
			JOINT LeftLeg
			{
				OFFSET 2.39362 -6.57643 0.00000
				CHANNELS 3 Zrotation Yrotation Xrotation
				JOINT LeftFoot
				{
					OFFSET 2.50952 -6.89485 0.00000
					CHANNELS 3 Zrotation Yrotation Xrotation
					JOINT LeftToeBase
					{
						OFFSET 0.17171 -0.47178 1.88682
						CHANNELS 3 Zrotation Yrotation Xrotation
						End Site
						{
							OFFSET 0.00000 -0.00000 0.98146
						}
					}
				}
			}
		}
	}
	JOINT RHipJoint
	{
		OFFSET 0 0 0
		CHANNELS 3 Zrotation Yrotation Xrotation
		JOINT RightUpLeg
		{
			OFFSET -1.28153 -1.73443 1.15205
			CHANNELS 3 Zrotation Yrotation Xrotation
			JOINT RightLeg
			{
				OFFSET -2.26861 -6.23296 0.00000
				CHANNELS 3 Zrotation Yrotation Xrotation
				JOINT RightFoot
				{
					OFFSET -2.54143 -6.98254 0.00000
					CHANNELS 3 Zrotation Yrotation Xrotation
					JOINT RightToeBase
					{
						OFFSET -0.23309 -0.64041 1.93119
						CHANNELS 3 Zrotation Yrotation Xrotation
						End Site
						{
							OFFSET -0.00000 -0.00000 1.02013
						}
					}
				}
			}
		}
	}
	JOINT LowerBack
	{
		OFFSET 0 0 0
		CHANNELS 3 Zrotation Yrotation Xrotation
		JOINT Spine
		{
			OFFSET -0.07096 2.10460 -0.27878
			CHANNELS 3 Zrotation Yrotation Xrotation
			JOINT Spine1
			{
				OFFSET -0.00826 2.13662 -0.08279
				CHANNELS 3 Zrotation Yrotation Xrotation
				JOINT Neck
				{
					OFFSET 0 0 0
					CHANNELS 3 Zrotation Yrotation Xrotation
					JOINT Neck1
					{
						OFFSET 0.03239 1.77799 0.24435
						CHANNELS 3 Zrotation Yrotation Xrotation
						JOINT Head
						{
							OFFSET 0.01026 1.74194 -0.49664
							CHANNELS 3 Zrotation Yrotation Xrotation
							End Site
							{
								OFFSET 0.00170 1.83057 -0.19653
							}
						}
					}
				}
				JOINT LeftShoulder
				{
					OFFSET 0 0 0
					CHANNELS 3 Zrotation Yrotation Xrotation
					JOINT LeftArm
					{
						OFFSET 3.19178 1.35907 -0.31412
						CHANNELS 3 Zrotation Yrotation Xrotation
						JOINT LeftForeArm
						{
							OFFSET 4.85247 -0.00000 -0.00000
							CHANNELS 3 Zrotation Yrotation Xrotation
							JOINT LeftHand
							{
								OFFSET 3.55584 -0.00000 0.00000
								CHANNELS 3 Zrotation Yrotation Xrotation
								JOINT LeftFingerBase
								{
									OFFSET 0 0 0
									CHANNELS 3 Zrotation Yrotation Xrotation
									JOINT LeftHandIndex1
									{
										OFFSET 0.69320 -0.00000 0.00000
										CHANNELS 3 Zrotation Yrotation Xrotation
										End Site
										{
											OFFSET 0.55888 -0.00000 0.00000
										}
									}
								}
								JOINT LThumb
								{
									OFFSET 0 0 0
									CHANNELS 3 Zrotation Yrotation Xrotation
									End Site
									{
										OFFSET 0.56741 -0.00000 0.56741
									}
								}
							}
						}
					}
				}
				JOINT RightShoulder
				{
					OFFSET 0 0 0
					CHANNELS 3 Zrotation Yrotation Xrotation
					JOINT RightArm
					{
						OFFSET -3.28999 1.24191 -0.26899
						CHANNELS 3 Zrotation Yrotation Xrotation
						JOINT RightForeArm
						{
							OFFSET -4.64462 -0.00000 0.00000
							CHANNELS 3 Zrotation Yrotation Xrotation
							JOINT RightHand
							{
								OFFSET -3.40703 -0.00000 0.00000
								CHANNELS 3 Zrotation Yrotation Xrotation
								JOINT RightFingerBase
								{
									OFFSET 0 0 0
									CHANNELS 3 Zrotation Yrotation Xrotation
									JOINT RightHandIndex1
									{
										OFFSET -0.61958 -0.00000 0.00000
										CHANNELS 3 Zrotation Yrotation Xrotation
										End Site
										{
											OFFSET -0.49952 -0.00000 0.00000
										}
									}
								}
								JOINT RThumb
								{
									OFFSET 0 0 0
									CHANNELS 3 Zrotation Yrotation Xrotation
									End Site
									{
										OFFSET -0.50715 -0.00000 0.50715
									}
								}
							}
						}
					}
				}
			}
		}
	}
}
MOTION
Frames: 5
Frame Time: .0083333
45.6472 16.8307 0.9757 536.3580 1.5783 534.6000 0.0000 0.0000 0.0000 -37.8954 -0.3030 9.1151 0.2727 3.3589 9.2796 0.6480 0.4075 -15.3633 1.3551 7.3689 20.8131 0.0000 0.0000 0.0000 6.0680 5.2839 -13.6006 -10.0177 -17.4198 59.5474 -0.2772 -2.8322 -11.4006 -0.3118 -3.5895 9.9246 -9.3995 1.3926 8.2200 -2.9628 1.5837 3.3098 2.0342 0.9626 -1.2821 14.4939 14.8442 -13.3788 -13.5129 20.2408 30.8011 -4.3551 7.8939 16.3803 -0.0000 0.0000 0.0000 -74.7929 -5.9939 48.6829 34.0313 -44.1079 -14.1349 -0.0000 0.0000 -8.3174 17.9766 -25.3144 -7.8987 -7.1250 0.0000 -0.0000 -7.0729 3.7126 6.6519 -0.0000 0.0000 0.0000 90.7942 -18.6469 22.2030 -16.3139 25.9445 -3.7823 0.0000 0.0000 2.5725 -17.6036 -27.6186 8.3676 7.1250 -0.0000 -0.0000 14.3310 -58.1641 -4.6782
45.6572 16.8469 0.8263 535.9390 0.5635 534.5180 0.0000 0.0000 0.0000 -38.2873 0.3028 10.0291 0.2442 3.1801 8.7807 0.6063 0.0487 -14.7325 0.9509 6.2101 17.3952 0.0000 0.0000 0.0000 5.4957 5.6578 -14.1847 -9.5275 -17.1354 57.8971 -0.3354 -2.7276 -12.2874 -0.5302 -4.6660 12.9584 -9.5184 1.6957 8.4134 -3.4286 2.0060 3.2757 1.5648 1.2084 -1.4504 14.9610 14.3126 -13.4868 -13.0934 19.2135 31.0065 -4.4906 7.5924 16.2989 -0.0000 -0.0000 0.0000 -73.4771 -7.1414 51.0154 34.8694 -44.7187 -14.7214 -0.0000 0.0000 -8.7496 18.3184 -24.7904 -7.9033 -7.1250 0.0000 -0.0000 -6.8199 4.1934 6.3490 -0.0000 -0.0000 0.0000 92.6159 -19.6087 19.4419 -16.0395 25.5741 -3.6630 0.0000 0.0000 2.9619 -16.9424 -27.7167 8.0642 7.1250 -0.0000 -0.0000 15.0887 -58.1144 -4.9146
45.6667 16.8448 0.6829 535.7930 -0.6522 534.8460 0.0000 0.0000 0.0000 -38.5245 -0.0687 10.7439 0.2263 3.0624 8.4524 0.5938 -0.4856 -14.4005 0.6561 5.1807 14.4248 0.0000 0.0000 0.0000 5.1133 5.7692 -15.3019 -9.0293 -16.8265 56.1913 -0.3679 -2.6204 -12.7212 -0.5172 -4.6094 12.7979 -9.6593 2.2689 8.2011 -3.3888 1.6499 3.3033 1.7321 0.5423 -1.3517 14.7839 14.1419 -13.5250 -12.9804 18.9777 30.9677 -4.4655 7.4976 16.1971 -0.0000 0.0000 0.0000 -73.8068 -8.3216 50.9777 34.7407 -44.6261 -14.6309 -0.0000 0.0000 -7.9653 18.0690 -25.1244 -7.8865 -7.1250 0.0000 -0.0000 -7.0005 3.8918 6.5593 -0.0000 0.0000 0.0000 93.1234 -20.2549 18.0983 -15.7093 25.1249 -3.5216 0.0000 0.0000 3.5795 -16.3718 -27.7370 7.7858 7.1250 -0.0000 -0.0000 15.7014 -58.0092 -5.0805
45.6752 16.8475 0.5332 535.7430 -1.7509 534.9930 0.0000 0.0000 0.0000 -38.3619 0.4892 11.2813 0.2132 2.9724 8.2018 0.5591 -1.4118 -13.7090 0.2334 3.1092 8.5830 0.0000 0.0000 0.0000 4.9860 5.8286 -16.0675 -8.4441 -16.4364 54.1471 -0.3455 -2.9645 -12.5940 -0.0963 -2.0012 5.5088 -10.1116 1.9140 8.1100 -3.1248 1.1888 3.3623 2.3042 0.3114 -1.2034 14.3606 14.2614 -13.4951 -12.9920 19.2807 30.7850 -4.3254 7.5829 16.0997 -0.0000 -0.0000 0.0000 -74.5945 -9.4699 50.2828 34.3265 -44.3252 -14.3407 -0.0000 0.0000 -7.4607 18.2260 -25.3989 -8.0391 -7.1250 0.0000 -0.0000 -6.9285 3.5868 6.5302 -0.0000 -0.0000 0.0000 92.7751 -20.7739 17.7091 -15.3637 24.6503 -3.3762 0.0000 0.0000 4.2793 -15.6300 -27.6891 7.4070 7.1250 -0.0000 -0.0000 16.4480 -57.8017 -5.2479
45.6868 16.8518 0.3875 535.6730 -2.9459 535.1280 0.0000 0.0000 0.0000 -38.2732 0.6082 12.0779 0.1906 2.8116 7.7547 0.5469 -2.9000 -13.2793 0.7537 5.5448 15.4692 0.0000 0.0000 0.0000 4.8216 5.7310 -16.7288 -7.8242 -15.9884 51.9268 -0.3548 -3.3907 -13.0164 -0.1442 -2.4472 6.7433 -10.6013 1.5736 8.1823 -2.8954 0.7132 3.3843 2.8583 0.0763 -1.1706 14.0822 14.3586 -13.4511 -13.0388 19.5246 30.5835 -4.2371 7.6611 16.0042 -0.0000 0.0000 0.0000 -74.1298 -10.3134 51.0885 35.2742 -45.0069 -15.0069 -0.0000 0.0000 -8.4452 18.7740 -24.7164 -8.0893 -7.1250 0.0000 -0.0000 -6.5346 4.1970 6.0792 -0.0000 0.0000 0.0000 92.4610 -21.3383 17.3179 -15.0753 24.2509 -3.2568 0.0000 0.0000 4.9527 -14.9374 -27.6088 7.0479 7.1250 -0.0000 -0.0000 17.1182 -57.5754 -5.3759
